<mxfile host="app.diagrams.net" modified="2023-06-05T08:14:19.448Z" agent="Mozilla/5.0 (Windows NT 10.0; Win64; x64) AppleWebKit/537.36 (KHTML, like Gecko) Chrome/113.0.0.0 Safari/537.36" version="21.3.7" etag="XUzFhICGpvP3z2IEr4xF" type="github">
  <diagram name="第 1 页" id="1SuzW-Q2CQFh_4I61bOb">
    <mxGraphModel>
      <root>
        <mxCell id="0" />
        <mxCell id="1" parent="0" />
      </root>
    </mxGraphModel>
  </diagram>
</mxfile>
